          <svg width="163" height="26" viewBox="0 0 163 26" fill="none" xmlns="http://www.w3.org/2000/svg">
            <path fillRule="evenodd" clipRule="evenodd" d="M150.204 18.1824C150.713 17.6193 149.501 17.9082 150.944 17.7261C151.146 17.7007 151.343 17.7506 151.512 17.8587C151.932 18.1268 151.883 18.5536 151.933 19.1158C153.415 19.4349 153.613 19.2582 153.281 21.1183L152.001 21.4368L151.616 22.8307L150.035 22.7388L149.811 21.2429L148.542 20.9896L148.519 19.6505L149.558 19.3956C149.988 19.1811 150 19.0164 150.126 18.6044C150.165 18.4741 150.172 18.2505 150.204 18.1821V18.1824ZM156.248 25.5843C154.567 25.8081 152.446 25.6911 150.708 25.6904C149.523 25.69 147.062 25.8765 146.009 25.5129C145.947 25.4914 145.848 25.5027 145.803 25.4072C145.758 25.3103 145.662 25.3368 145.567 25.2915L145.544 23.7066C149.25 23.7452 152.971 24.7027 156.071 22.9839C157.569 22.1532 160.902 19.0483 160.492 16.495L139.553 16.406C140.255 19.9997 142.22 22.0922 145.303 23.6221L145.489 25.7784C146.232 25.9173 155.199 26.2863 156.248 25.5843H156.248Z" fill="#BBE26D" />
            <path fillRule="evenodd" clipRule="evenodd" d="M156.51 14.8477L139.791 14.9435C139.392 15.3817 139.627 14.7151 139.515 15.7558C139.512 15.7862 139.551 16.3688 139.553 16.4059L160.492 16.4949C160.902 19.0482 157.569 22.1531 156.07 22.9838C152.971 24.7026 149.25 23.7451 145.544 23.7065L145.567 25.2914C145.662 25.3367 145.757 25.3102 145.803 25.4071C145.848 25.5026 145.946 25.4911 146.009 25.5128C147.062 25.8764 149.523 25.6899 150.708 25.6904C152.446 25.691 154.566 25.808 156.248 25.5842L156.21 25.2043C155.731 25.3163 147.648 25.6029 146.62 25.3997C145.507 25.1796 145.881 25.856 145.792 24.3851L146.216 24.2029C147.263 24.0212 147.069 24.2774 148.239 24.3738C151.144 24.6134 155.235 23.8035 156.24 23.9442C156.444 23.3867 160.507 21.8769 161.354 18.8973L162.059 16.3308L160.738 16.4819L160.815 15.0105L158.095 15.0025L157.985 14.6975L156.51 14.8479V14.8477Z" fill="#92B154" />
            <path fillRule="evenodd" clipRule="evenodd" d="M139.792 14.9436L156.51 14.8478C156.812 13.7045 158.634 12.4745 159.312 11.5393L160.276 11.7282L157.866 9.24829L157.099 9.28324L152.83 13.6042C152.161 14.3455 152.077 14.6548 150.953 14.7523C148.875 14.9325 140.873 14.2196 139.792 14.9433V14.9436Z" fill="#BD9B88" />
            <path fillRule="evenodd" clipRule="evenodd" d="M156.209 25.2044L156.24 23.9443C155.235 23.8036 151.143 24.6137 148.239 24.3739C147.069 24.2775 147.263 24.0211 146.216 24.203L145.792 24.3852C145.881 25.8563 145.507 25.1797 146.62 25.3998C147.648 25.603 155.731 25.3164 156.209 25.2044Z" fill="#718944" />
            <path fillRule="evenodd" clipRule="evenodd" d="M149.811 21.243C151.053 21.8393 149.455 22.2357 151.157 22.4881C151.784 21.8326 151.335 22.0889 151.726 21.1442L152.976 20.7643L152.478 19.6479C152.414 19.6301 152.347 19.6218 152.282 19.6062C151.987 19.5354 152.004 19.6064 151.559 19.4634L151.329 18.1277L150.203 18.1824C150.172 18.2506 150.165 18.4744 150.126 18.6046C150 19.0166 149.988 19.1814 149.558 19.3959L148.519 19.6507L148.542 20.9899L149.811 21.2432V21.243Z" fill="#FAFBF5" />
            <path fillRule="evenodd" clipRule="evenodd" d="M158.569 7.65371C158.563 7.96782 158.679 7.78721 158.426 7.95827L158.403 8.7595C159.457 9.64735 159.715 10.0657 160.6 10.9138C160.732 9.38707 161.752 9.13201 160.422 7.62635C161.017 7.68887 160.655 7.6969 161.44 7.85276C161.163 7.37823 161.281 7.58858 161.317 7.30161C160.015 7.07628 159.464 7.25602 158.569 7.65371Z" fill="#BA9581" />
            <path fillRule="evenodd" clipRule="evenodd" d="M149.773 11.5857C149.279 10.1998 149.425 9.87444 150.484 9.30483C151.099 9.55816 150.57 9.2091 151.263 9.77524C151.588 10.0407 151.467 10.0216 151.891 10.2947L151.75 11.0158C152.64 10.3616 153.155 9.72227 153.113 8.56177C151.639 7.3216 151.946 7.90663 150.431 8.8952C149.928 9.22386 149.538 9.46894 149.286 10.0859C148.707 11.5053 149.765 11.582 149.773 11.5859L149.773 11.5857Z" fill="#E8E6E5" />
            <path fillRule="evenodd" clipRule="evenodd" d="M144.806 10.2926C145.172 11.2174 145.631 13.277 147.798 13.3005C147.858 11.5011 146.617 10.2067 144.806 10.2926Z" fill="#A8CB64" />
            <path fillRule="evenodd" clipRule="evenodd" d="M156.51 14.8478L157.985 14.6974C158.321 14.0474 159.615 12.6833 160.313 12.3499L160.275 11.7282L159.311 11.5393C158.634 12.4745 156.812 13.7044 156.51 14.8478H156.51Z" fill="#927265" />
            <path fillRule="evenodd" clipRule="evenodd" d="M149.811 21.2429L150.035 22.7388L151.616 22.8306L152 21.4367L153.281 21.1183C153.613 19.2581 153.415 19.4348 151.933 19.1157C151.883 18.5535 151.931 18.1267 151.512 17.8586C151.343 17.7505 151.146 17.7006 150.944 17.726C149.501 17.9079 150.713 17.6192 150.203 18.1823L151.329 18.1276L151.558 19.4633C152.004 19.6063 151.987 19.5356 152.281 19.6061C152.347 19.6217 152.413 19.63 152.478 19.6478L152.975 20.7642L151.726 21.1441C151.335 22.0888 151.784 21.8325 151.157 22.488C149.455 22.2356 151.053 21.8392 149.811 21.2429Z" fill="#D8ECB2" />
            <path fillRule="evenodd" clipRule="evenodd" d="M160.601 10.9137C160.8 11.4416 161.107 11.2143 161.587 11.1857L162.199 10.4218C162.326 9.08371 162.49 8.3133 161.44 7.85288C160.655 7.69701 161.017 7.68898 160.422 7.62646C161.752 9.1319 160.732 9.38697 160.601 10.9139V10.9137Z" fill="#997C6B" />
            <path fillRule="evenodd" clipRule="evenodd" d="M149.773 11.5857C150.099 11.6826 150.446 11.7477 150.973 11.7136L151.75 11.0157L151.891 10.2946C151.468 10.0217 151.588 10.0406 151.264 9.7751C150.571 9.20874 151.099 9.55802 150.484 9.30469C149.426 9.8743 149.279 10.1997 149.773 11.5855L149.773 11.5857Z" fill="#FC8B92" />
            <path fillRule="evenodd" clipRule="evenodd" d="M157.099 9.28327L157.866 9.24832L160.275 11.7282L160.313 12.3499C161.058 12.0567 160.392 12.4148 160.968 11.8663C161.551 11.3119 161.128 11.8452 161.587 11.1855C161.107 11.2142 160.8 11.4417 160.601 10.9135C159.715 10.0654 159.457 9.64709 158.404 8.75924L158.426 7.95801C157.694 8.47834 158.279 8.05678 157.734 8.60468C157.233 9.10809 157.607 8.59209 157.099 9.28305V9.28327Z" fill="#DDD7D5" />
            <path fillRule="evenodd" clipRule="evenodd" d="M144.228 6.67625C144.976 7.56562 145.499 8.0573 146.796 7.54109C147.176 6.19716 146.585 5.80924 145.829 4.90576C146.071 5.77776 144.921 6.6018 144.228 6.67625Z" fill="#E8E6E5" />
            <path fillRule="evenodd" clipRule="evenodd" d="M157.985 14.6976L158.095 15.0026L160.815 15.0106L162.117 15.0575L162.059 16.3309L161.354 18.8974C161.607 18.7029 161.542 18.8481 161.736 18.5555L162.467 15.766C162.431 14.1019 161.089 14.7382 158.512 14.6937C159.041 13.4179 159.878 13.4042 160.313 12.3501C159.614 12.6835 158.32 14.0476 157.985 14.6976Z" fill="#B9C3A3" />
            <path fillRule="evenodd" clipRule="evenodd" d="M155.681 4.50888C155.773 5.83849 155.794 6.01128 154.541 6.18038L154.479 4.26011C155.045 4.31112 155.268 4.41684 155.684 4.58073C155.058 3.16191 153.944 4.28529 153.536 4.68319C152.935 5.99413 154.998 7.25839 155.807 5.92879C155.936 5.71584 155.997 5.61924 156.001 5.36113C156.02 3.91235 155.923 4.85338 155.681 4.50866V4.50888Z" fill="#B6EAF4" />
            <path fillRule="evenodd" clipRule="evenodd" d="M150.736 2.92969C150.512 4.33787 150.072 3.78432 149.454 5.28607C151.1 5.09092 150.765 4.55061 151.83 3.86812L151.857 3.91066L151.904 2.60646C150.956 2.64184 151.305 2.47534 150.736 2.9299V2.92969Z" fill="#98B958" />
            <path fillRule="evenodd" clipRule="evenodd" d="M144.115 6.36533C144.875 6.31627 145.267 5.83023 145.56 5.13667C144.37 3.65424 142.666 4.19216 144.115 6.36533Z" fill="#FE8289" />
            <path fillRule="evenodd" clipRule="evenodd" d="M149.362 3.78823C149.35 4.35459 148.987 4.58686 148.908 5.61755C150.404 5.87544 151.321 4.87753 151.83 3.86812C150.765 4.55083 151.1 5.09092 149.453 5.28607C150.072 3.78411 150.511 4.33766 150.736 2.92969C149.94 3.26594 150.069 3.32802 149.362 3.78823H149.362Z" fill="#C7E986" />
            <path fillRule="evenodd" clipRule="evenodd" d="M144.115 6.3652C142.665 4.19181 144.37 3.65389 145.56 5.13653C145.267 5.8301 144.874 6.31635 144.115 6.3652ZM144.115 6.3652L144.227 6.67627C144.92 6.60181 146.071 5.778 145.829 4.90578C144.947 4.01619 143.906 3.10381 143.077 5.13631C143.186 5.49167 143.095 5.54855 143.38 5.93473C143.914 6.65717 143.581 6.19175 144.115 6.36498V6.3652Z" fill="#F7BFC2" />
            <path fillRule="evenodd" clipRule="evenodd" d="M142.592 9.75641L141.505 10.0406L141.442 8.09988C142.225 8.08013 142.304 8.13027 142.773 8.47847C141.835 7.15972 140.385 7.68135 140.611 9.68238C140.848 9.91444 141.022 10.252 141.53 10.3295C142.354 10.4554 142.36 10.1124 142.592 9.75619L142.592 9.75641Z" fill="#ACE8EC" />
            <path fillRule="evenodd" clipRule="evenodd" d="M142.592 9.75644C142.989 9.60015 142.835 8.95651 142.773 8.47872C142.305 8.13053 142.225 8.08038 141.442 8.10013L141.506 10.0408L142.592 9.75666V9.75644Z" fill="#8EBCCC" />
            <path fillRule="evenodd" clipRule="evenodd" d="M155.681 4.50905L155.684 4.58112C155.269 4.41701 155.045 4.31151 154.479 4.2605L154.541 6.18077C155.794 6.01145 155.773 5.83888 155.681 4.50927V4.50905Z" fill="#85B6C6" />
            <path fillRule="evenodd" clipRule="evenodd" d="M162.06 16.331L162.117 15.0574L160.815 15.0107L160.738 16.4821L162.06 16.331Z" fill="#718944" />
            <path fillRule="evenodd" clipRule="evenodd" d="M125.994 17.3024L125.024 16.082C124.644 15.711 124.987 16.0077 124.526 15.7053C124.851 16.5799 125.167 16.9264 125.994 17.3024Z" fill="#1D3669" />
            <path d="M11.177 13.8997C10.9387 13.5525 10.603 13.2704 10.1697 13.0534C9.73653 12.8147 9.27083 12.6953 8.77263 12.6953C7.53796 12.6953 6.57406 13.0642 5.88091 13.8021C5.20942 14.5399 4.87368 15.5056 4.87368 16.6992C4.87368 17.8928 5.20942 18.8585 5.88091 19.5964C6.57406 20.3342 7.53796 20.7031 8.77263 20.7031C9.31415 20.7031 9.77985 20.5838 10.1697 20.3451C10.5596 20.1063 10.8954 19.8242 11.177 19.4987L14.3936 22.8841C13.6355 23.6654 12.7366 24.2188 11.6968 24.5443C10.6788 24.8481 9.70404 25 8.77263 25C7.55962 25 6.4116 24.8047 5.32856 24.4141C4.26718 24.0234 3.33576 23.4701 2.53431 22.7539C1.75453 22.0161 1.13719 21.1372 0.682316 20.1172C0.227439 19.0972 0 17.9579 0 16.6992C0 15.4405 0.227439 14.3012 0.682316 13.2813C1.13719 12.2613 1.75453 11.3932 2.53431 10.6771C3.33576 9.93924 4.26718 9.375 5.32856 8.98438C6.4116 8.59375 7.55962 8.39844 8.77263 8.39844C9.70404 8.39844 10.6788 8.5612 11.6968 8.88672C12.7366 9.19054 13.6355 9.73307 14.3936 10.5143L11.177 13.8997Z" fill="#1D3669" />
            <path d="M21.0355 0V10.9375H21.1005C21.2088 10.6337 21.3929 10.3299 21.6529 10.026C21.9128 9.72222 22.2269 9.45096 22.5951 9.21224C22.9633 8.97353 23.3966 8.77821 23.8947 8.6263C24.3929 8.47439 24.9345 8.39844 25.5193 8.39844C26.754 8.39844 27.7504 8.59375 28.5085 8.98438C29.2666 9.3533 29.8515 9.87413 30.263 10.5469C30.6962 11.2196 30.9887 12.0117 31.1403 12.9232C31.2919 13.8346 31.3677 14.822 31.3677 15.8854V24.6094H26.494V16.862C26.494 16.4062 26.4724 15.9397 26.4291 15.4622C26.4074 14.9631 26.3099 14.5074 26.1366 14.0951C25.985 13.6827 25.7359 13.3464 25.3893 13.0859C25.0644 12.8255 24.5879 12.6953 23.9597 12.6953C23.3316 12.6953 22.8225 12.8147 22.4326 13.0534C22.0428 13.2704 21.7395 13.5742 21.5229 13.9648C21.3279 14.3338 21.198 14.7569 21.133 15.2344C21.068 15.7118 21.0355 16.2109 21.0355 16.7318V24.6094H16.1618V0H21.0355Z" fill="#1D3669" />
            <path d="M49.7649 21.875C48.9851 22.8733 47.9995 23.6437 46.8082 24.1862C45.6168 24.7287 44.3821 25 43.1042 25C41.8912 25 40.7431 24.8047 39.6601 24.4141C38.5987 24.0234 37.6673 23.4701 36.8658 22.7539C36.0861 22.0161 35.4687 21.1372 35.0139 20.1172C34.559 19.0972 34.3315 17.9579 34.3315 16.6992C34.3315 15.4405 34.559 14.3012 35.0139 13.2813C35.4687 12.2613 36.0861 11.3932 36.8658 10.6771C37.6673 9.93924 38.5987 9.375 39.6601 8.98438C40.7431 8.59375 41.8912 8.39844 43.1042 8.39844C44.2305 8.39844 45.2486 8.59375 46.1583 8.98438C47.0898 9.375 47.8695 9.93924 48.4977 10.6771C49.1475 11.3932 49.6457 12.2613 49.9923 13.2813C50.3389 14.3012 50.5122 15.4405 50.5122 16.6992V18.2292H39.2052C39.4002 19.1623 39.8225 19.911 40.4724 20.4753C41.1222 21.0178 41.9236 21.2891 42.8767 21.2891C43.6782 21.2891 44.3497 21.1155 44.8912 20.7682C45.4544 20.3993 45.9417 19.9327 46.3533 19.3685L49.7649 21.875ZM45.6385 14.9089C45.6601 14.0842 45.3894 13.3789 44.8262 12.793C44.263 12.207 43.5374 11.9141 42.6493 11.9141C42.1078 11.9141 41.6312 12.0009 41.2197 12.1745C40.8081 12.3481 40.4507 12.576 40.1475 12.8581C39.8659 13.1185 39.6384 13.4332 39.4651 13.8021C39.3135 14.1493 39.2269 14.5182 39.2052 14.9089H45.6385Z" fill="#1D3669" />
            <path d="M53.476 8.78906H58.1547V10.9375H58.2197C58.3713 10.6337 58.5879 10.3299 58.8695 10.026C59.1511 9.72222 59.4868 9.45096 59.8767 9.21224C60.2666 8.97353 60.7107 8.77821 61.2089 8.6263C61.7071 8.47439 62.2486 8.39844 62.8334 8.39844C63.9381 8.39844 64.9129 8.6263 65.7576 9.08203C66.6241 9.53776 67.2739 10.2539 67.7071 11.2305C68.2703 10.2105 68.9526 9.48351 69.7541 9.04948C70.5555 8.61545 71.5411 8.39844 72.7108 8.39844C73.7721 8.39844 74.6602 8.5829 75.375 8.95182C76.1115 9.29905 76.6855 9.78733 77.0971 10.4167C77.5303 11.0243 77.8335 11.7513 78.0068 12.5977C78.2018 13.4223 78.2993 14.3121 78.2993 15.2669V24.6094H73.4256V15.3971C73.4256 14.6593 73.2631 14.0299 72.9382 13.5091C72.6349 12.9666 72.0826 12.6953 71.2812 12.6953C70.718 12.6953 70.2414 12.793 69.8515 12.9883C69.4833 13.1619 69.1801 13.4115 68.9418 13.737C68.7252 14.0625 68.5627 14.4423 68.4544 14.8763C68.3678 15.3103 68.3245 15.7661 68.3245 16.2435V24.6094H63.4508V16.2435C63.4508 15.9614 63.4399 15.6142 63.4183 15.2018C63.3966 14.7895 63.3208 14.3989 63.1908 14.0299C63.0609 13.661 62.8443 13.3464 62.541 13.0859C62.2594 12.8255 61.837 12.6953 61.2739 12.6953C60.6457 12.6953 60.1367 12.8147 59.7468 13.0534C59.3569 13.2704 59.0536 13.5742 58.837 13.9648C58.6421 14.3338 58.5121 14.7569 58.4471 15.2344C58.3821 15.7118 58.3496 16.2109 58.3496 16.7318V24.6094H53.476V8.78906Z" fill="#1D3669" />
            <path d="M81.8121 8.78906H86.6858V24.6094H81.8121V8.78906ZM81.4222 3.80859C81.4222 3.02734 81.693 2.36545 82.2345 1.82292C82.7977 1.25868 83.4692 0.976563 84.249 0.976563C85.0287 0.976563 85.6894 1.25868 86.2309 1.82292C86.7941 2.36545 87.0757 3.02734 87.0757 3.80859C87.0757 4.58984 86.7941 5.26259 86.2309 5.82682C85.6894 6.36936 85.0287 6.64062 84.249 6.64062C83.4692 6.64062 82.7977 6.36936 82.2345 5.82682C81.693 5.26259 81.4222 4.58984 81.4222 3.80859Z" fill="#1D3669" />
            <path d="M99.1223 13.444C98.4075 12.5543 97.4653 12.1094 96.2956 12.1094C95.884 12.1094 95.4833 12.207 95.0934 12.4023C94.7035 12.5977 94.5086 12.934 94.5086 13.4115C94.5086 13.8021 94.7035 14.0951 95.0934 14.2904C95.505 14.464 96.014 14.6267 96.6205 14.7786C97.2486 14.9089 97.9093 15.0608 98.6024 15.2344C99.3173 15.3863 99.9779 15.6359 100.584 15.9831C101.213 16.3303 101.722 16.8077 102.112 17.4154C102.523 18.0013 102.729 18.7934 102.729 19.7917C102.729 20.8116 102.501 21.658 102.047 22.3307C101.613 22.9818 101.05 23.5135 100.357 23.9258C99.6638 24.3164 98.884 24.5877 98.0176 24.7396C97.1512 24.9132 96.2956 25 95.4508 25C94.3461 25 93.2306 24.8481 92.1042 24.5443C90.9778 24.2188 90.0248 23.6545 89.245 22.8516L92.2017 19.5638C92.6566 20.128 93.1548 20.5621 93.6963 20.8659C94.2595 21.148 94.9093 21.2891 95.6457 21.2891C96.2089 21.2891 96.718 21.2131 97.1728 21.0612C97.6277 20.8876 97.8551 20.5838 97.8551 20.1497C97.8551 19.7374 97.6494 19.4336 97.2378 19.2383C96.8479 19.0213 96.3389 18.8477 95.7107 18.7174C95.1042 18.5655 94.4436 18.4136 93.7288 18.2617C93.0356 18.0881 92.375 17.8385 91.7468 17.513C91.1403 17.1875 90.6313 16.7318 90.2197 16.1458C89.8298 15.5382 89.6349 14.7352 89.6349 13.737C89.6349 12.8038 89.819 12.0009 90.1872 11.3281C90.5771 10.6554 91.0753 10.102 91.6818 9.66797C92.31 9.23394 93.0248 8.91927 93.8262 8.72396C94.6277 8.50694 95.44 8.39844 96.2631 8.39844C97.3028 8.39844 98.3534 8.55035 99.4147 8.85417C100.476 9.15799 101.375 9.70052 102.112 10.4818L99.1223 13.444Z" fill="#1D3669" />
            <path d="M115.982 12.6953H111.693V17.9688C111.693 18.4028 111.715 18.8043 111.758 19.1732C111.801 19.5204 111.899 19.8242 112.05 20.0846C112.202 20.3451 112.429 20.5512 112.733 20.7031C113.058 20.8333 113.48 20.8984 114 20.8984C114.26 20.8984 114.595 20.8767 115.007 20.8333C115.44 20.7682 115.765 20.638 115.982 20.4427V24.5117C115.44 24.707 114.877 24.8372 114.292 24.9023C113.707 24.9674 113.133 25 112.57 25C111.747 25 110.989 24.9132 110.296 24.7396C109.603 24.566 108.996 24.2947 108.476 23.9258C107.956 23.5352 107.545 23.036 107.242 22.4284C106.96 21.8207 106.819 21.0829 106.819 20.2148V12.6953H103.7V8.78906H106.819V4.10156H111.693V8.78906H115.982V12.6953Z" fill="#1D3669" />
            <path d="M127.393 13.444C126.679 12.5543 125.736 12.1094 124.567 12.1094C124.155 12.1094 123.754 12.207 123.365 12.4023C122.975 12.5977 122.78 12.934 122.78 13.4115C122.78 13.8021 122.975 14.0951 123.365 14.2904C123.776 14.464 124.285 14.6267 124.892 14.7786C125.52 14.9089 126.18 15.0608 126.874 15.2344C127.588 15.3863 128.249 15.6359 128.856 15.9831C129.484 16.3303 129.993 16.8077 130.383 17.4154C130.794 18.0013 131 18.7934 131 19.7917C131 20.8116 130.773 21.658 130.318 22.3307C129.884 22.9818 129.321 23.5135 128.628 23.9258C127.935 24.3164 127.155 24.5877 126.289 24.7396C125.422 24.9132 124.567 25 123.722 25C122.617 25 121.502 24.8481 120.375 24.5443C119.249 24.2188 118.296 23.6545 117.516 22.8516L120.473 19.5638C120.928 20.128 121.426 20.5621 121.967 20.8659C122.531 21.148 123.18 21.2891 123.917 21.2891C124.48 21.2891 124.989 21.2131 125.444 21.0612C125.899 20.8876 126.126 20.5838 126.126 20.1497C126.126 19.7374 125.921 19.4336 125.509 19.2383C125.119 19.0213 124.61 18.8477 123.982 18.7174C123.375 18.5655 122.715 18.4136 122 18.2617C121.307 18.0881 120.646 17.8385 120.018 17.513C119.411 17.1875 118.902 16.7318 118.491 16.1458C118.101 15.5382 117.906 14.7352 117.906 13.737C117.906 12.8038 118.09 12.0009 118.458 11.3281C118.848 10.6554 119.346 10.102 119.953 9.66797C120.581 9.23394 121.296 8.91927 122.097 8.72396C122.899 8.50694 123.711 8.39844 124.534 8.39844C125.574 8.39844 126.625 8.55035 127.686 8.85417C128.747 9.15799 129.646 9.70052 130.383 10.4818L127.393 13.444Z" fill="#1D3669" />
          </svg>