        <svg width="129" height="21" viewBox="0 0 129 21" fill="none" xmlns="http://www.w3.org/2000/svg">
          <path fillRule="evenodd" clipRule="evenodd" d="M119.263 14.4368C119.668 13.9897 118.705 14.2191 119.851 14.0745C120.011 14.0543 120.168 14.094 120.302 14.1798C120.635 14.3927 120.597 14.7315 120.636 15.178C121.813 15.4313 121.97 15.291 121.707 16.768L120.69 17.0209L120.385 18.1276L119.129 18.0547L118.952 16.8669L117.944 16.6658L117.926 15.6025L118.751 15.4001C119.092 15.2298 119.101 15.099 119.201 14.7719C119.233 14.6685 119.238 14.4909 119.263 14.4366V14.4368ZM124.062 20.314C122.727 20.4917 121.043 20.3988 119.664 20.3983C118.723 20.3979 116.769 20.546 115.933 20.2573C115.883 20.2402 115.804 20.2492 115.769 20.1733C115.733 20.0965 115.657 20.1175 115.582 20.0815L115.563 18.8231C118.506 18.8537 121.46 19.614 123.921 18.2493C125.111 17.5896 127.757 15.1244 127.432 13.097L110.806 13.0264C111.364 15.8798 112.924 17.5412 115.372 18.756L115.519 20.4681C116.109 20.5784 123.229 20.8714 124.062 20.314H124.062Z" fill="#BBE26D" />
          <path fillRule="evenodd" clipRule="evenodd" d="M124.27 11.7892L110.996 11.8652C110.679 12.2132 110.865 11.6839 110.776 12.5102C110.773 12.5343 110.805 12.9969 110.806 13.0264L127.432 13.0971C127.757 15.1244 125.111 17.5897 123.921 18.2493C121.46 19.6141 118.506 18.8538 115.563 18.8231L115.582 20.0815C115.657 20.1175 115.733 20.0965 115.769 20.1734C115.804 20.2492 115.883 20.2401 115.933 20.2573C116.768 20.546 118.723 20.398 119.664 20.3983C121.043 20.3988 122.727 20.4917 124.062 20.314L124.032 20.0124C123.652 20.1013 117.234 20.3289 116.418 20.1675C115.534 19.9928 115.831 20.5298 115.76 19.3619L116.097 19.2173C116.928 19.073 116.774 19.2764 117.703 19.353C120.009 19.5432 123.258 18.9002 124.056 19.0118C124.218 18.5692 127.444 17.3704 128.116 15.0046L128.677 12.9668L127.628 13.0867L127.689 11.9185L125.529 11.9121L125.442 11.6699L124.27 11.7894V11.7892Z" fill="#92B154" />
          <path fillRule="evenodd" clipRule="evenodd" d="M110.996 11.8651L124.27 11.7891C124.51 10.8813 125.957 9.90466 126.495 9.16212L127.26 9.31208L125.347 7.34302L124.738 7.37077L121.349 10.8016C120.817 11.3902 120.75 11.6359 119.858 11.7133C118.208 11.8563 111.854 11.2903 110.996 11.8649V11.8651Z" fill="#BD9B88" />
          <path fillRule="evenodd" clipRule="evenodd" d="M124.032 20.0125L124.056 19.0119C123.258 18.9002 120.009 19.5435 117.703 19.353C116.775 19.2765 116.928 19.0729 116.097 19.2174L115.76 19.362C115.831 20.5301 115.534 19.9928 116.418 20.1676C117.234 20.3289 123.652 20.1014 124.032 20.0125Z" fill="#718944" />
          <path fillRule="evenodd" clipRule="evenodd" d="M118.951 16.8671C119.937 17.3406 118.668 17.6553 120.02 17.8558C120.518 17.3353 120.161 17.5388 120.472 16.7887L121.464 16.4871L121.069 15.6006C121.018 15.5865 120.965 15.5799 120.913 15.5675C120.679 15.5113 120.693 15.5677 120.339 15.4541L120.157 14.3936L119.263 14.437C119.237 14.4911 119.232 14.6688 119.201 14.7722C119.101 15.0994 119.091 15.2302 118.751 15.4005L117.925 15.6028L117.944 16.6661L118.951 16.8673V16.8671Z" fill="#FAFBF5" />
          <path fillRule="evenodd" clipRule="evenodd" d="M125.905 6.077C125.9 6.32641 125.992 6.18301 125.791 6.31883L125.773 6.95501C126.61 7.65997 126.815 7.99211 127.518 8.66553C127.623 7.45331 128.432 7.25079 127.376 6.05528C127.849 6.10493 127.561 6.1113 128.184 6.23506C127.964 5.85827 128.059 6.02529 128.087 5.79743C127.053 5.61852 126.616 5.76124 125.905 6.077Z" fill="#BA9581" />
          <path fillRule="evenodd" clipRule="evenodd" d="M118.921 9.19904C118.529 8.09868 118.645 7.84031 119.485 7.38803C119.974 7.58917 119.554 7.31202 120.105 7.76154C120.362 7.97234 120.267 7.95717 120.603 8.174L120.491 8.74659C121.198 8.22709 121.607 7.71948 121.573 6.79803C120.403 5.81333 120.646 6.27785 119.444 7.06278C119.044 7.32374 118.734 7.51833 118.534 8.00819C118.075 9.13526 118.915 9.19611 118.921 9.19921L118.921 9.19904Z" fill="#E8E6E5" />
          <path fillRule="evenodd" clipRule="evenodd" d="M114.978 8.1724C115.268 8.90666 115.633 10.542 117.353 10.5606C117.401 9.13194 116.415 8.10414 114.978 8.1724Z" fill="#A8CB64" />
          <path fillRule="evenodd" clipRule="evenodd" d="M124.27 11.7891L125.442 11.6696C125.708 11.1536 126.735 10.0705 127.29 9.80571L127.26 9.31206L126.495 9.16211C125.957 9.90464 124.51 10.8812 124.27 11.7891H124.27Z" fill="#927265" />
          <path fillRule="evenodd" clipRule="evenodd" d="M118.951 16.8669L119.129 18.0547L120.384 18.1276L120.689 17.0209L121.706 16.768C121.97 15.291 121.813 15.4313 120.636 15.178C120.596 14.7315 120.635 14.3927 120.302 14.1798C120.167 14.094 120.011 14.0543 119.851 14.0745C118.705 14.2189 119.667 13.9897 119.263 14.4368L120.157 14.3934L120.339 15.4539C120.693 15.5675 120.679 15.5113 120.913 15.5673C120.964 15.5797 121.017 15.5863 121.069 15.6004L121.464 16.4869L120.471 16.7885C120.161 17.5386 120.517 17.3351 120.02 17.8556C118.668 17.6551 119.937 17.3404 118.951 16.8669Z" fill="#D8ECB2" />
          <path fillRule="evenodd" clipRule="evenodd" d="M127.518 8.66549C127.676 9.08468 127.92 8.90422 128.301 8.88146L128.787 8.27492C128.888 7.21249 129.018 6.60077 128.184 6.23519C127.561 6.11144 127.849 6.10506 127.376 6.05542C128.432 7.25075 127.622 7.45327 127.518 8.66567V8.66549Z" fill="#997C6B" />
          <path fillRule="evenodd" clipRule="evenodd" d="M118.921 9.19912C119.18 9.27599 119.455 9.3277 119.874 9.30064L120.491 8.7465L120.603 8.17391C120.267 7.95725 120.363 7.97225 120.105 7.76145C119.555 7.31176 119.974 7.58909 119.486 7.38794C118.645 7.84022 118.529 8.09859 118.921 9.19895L118.921 9.19912Z" fill="#FC8B92" />
          <path fillRule="evenodd" clipRule="evenodd" d="M124.738 7.37087L125.347 7.34312L127.26 9.31218L127.29 9.80583C127.882 9.57297 127.353 9.85736 127.81 9.4218C128.273 8.98159 127.937 9.40509 128.302 8.88128C127.921 8.90403 127.677 9.08466 127.518 8.66531C126.816 7.99189 126.61 7.65975 125.774 6.95479L125.792 6.3186C125.21 6.73175 125.675 6.39703 125.242 6.83207C124.845 7.23178 125.141 6.82207 124.738 7.3707V7.37087Z" fill="#DDD7D5" />
          <path fillRule="evenodd" clipRule="evenodd" d="M114.518 5.3008C115.112 6.00697 115.528 6.39737 116.557 5.98749C116.859 4.9204 116.39 4.61239 115.79 3.89502C115.981 4.5874 115.068 5.24168 114.518 5.3008Z" fill="#E8E6E5" />
          <path fillRule="evenodd" clipRule="evenodd" d="M125.441 11.6698L125.529 11.912L127.688 11.9184L128.722 11.9556L128.676 12.9667L128.116 15.0045C128.317 14.8501 128.265 14.9654 128.42 14.733L129 12.5182C128.971 11.1969 127.906 11.7021 125.86 11.6667C126.279 10.6538 126.944 10.6429 127.289 9.80591C126.735 10.0707 125.707 11.1538 125.441 11.6698Z" fill="#B9C3A3" />
          <path fillRule="evenodd" clipRule="evenodd" d="M123.612 3.57993C123.685 4.63564 123.702 4.77284 122.707 4.90711L122.658 3.3824C123.107 3.4229 123.285 3.50684 123.615 3.63698C123.117 2.51042 122.233 3.40239 121.909 3.71833C121.432 4.75922 123.07 5.76306 123.712 4.70734C123.815 4.53826 123.863 4.46156 123.866 4.25662C123.882 3.10628 123.804 3.85346 123.612 3.57975V3.57993Z" fill="#B6EAF4" />
          <path fillRule="evenodd" clipRule="evenodd" d="M119.686 2.32608C119.508 3.44419 119.158 3.00467 118.667 4.19707C119.975 4.04211 119.709 3.6131 120.554 3.0712L120.576 3.10498L120.613 2.06943C119.86 2.09753 120.137 1.96533 119.686 2.32625V2.32608Z" fill="#98B958" />
          <path fillRule="evenodd" clipRule="evenodd" d="M114.428 5.05406C115.031 5.01511 115.343 4.62919 115.575 4.07849C114.631 2.90144 113.277 3.32855 114.428 5.05406Z" fill="#FE8289" />
          <path fillRule="evenodd" clipRule="evenodd" d="M118.594 3.00786C118.585 3.45755 118.297 3.64198 118.234 4.46035C119.422 4.66512 120.15 3.87277 120.554 3.07129C119.709 3.61337 119.975 4.0422 118.667 4.19716C119.158 3.00459 119.507 3.44411 119.686 2.32617C119.053 2.59316 119.156 2.64245 118.594 3.00786H118.594Z" fill="#C7E986" />
          <path fillRule="evenodd" clipRule="evenodd" d="M114.429 5.05396C113.277 3.32828 114.631 2.90116 115.576 4.07839C115.343 4.62909 115.031 5.01518 114.429 5.05396ZM114.429 5.05396L114.518 5.30096C115.068 5.24184 115.981 4.58772 115.789 3.89517C115.089 3.18884 114.263 2.4644 113.604 4.07822C113.691 4.36038 113.619 4.40554 113.845 4.71217C114.269 5.28579 114.004 4.91625 114.429 5.05379V5.05396Z" fill="#F7BFC2" />
          <path fillRule="evenodd" clipRule="evenodd" d="M113.22 7.74663L112.357 7.97225L112.306 6.43134C112.928 6.41565 112.991 6.45547 113.363 6.73194C112.619 5.68484 111.467 6.09902 111.647 7.68785C111.835 7.87211 111.973 8.14013 112.376 8.20167C113.031 8.30164 113.035 8.0293 113.22 7.74646L113.22 7.74663Z" fill="#ACE8EC" />
          <path fillRule="evenodd" clipRule="evenodd" d="M113.22 7.74652C113.534 7.62242 113.412 7.11137 113.363 6.732C112.991 6.45553 112.928 6.41572 112.306 6.4314L112.357 7.97232L113.22 7.7467V7.74652Z" fill="#8EBCCC" />
          <path fillRule="evenodd" clipRule="evenodd" d="M123.612 3.58017L123.615 3.63739C123.285 3.50709 123.108 3.42332 122.658 3.38281L122.707 4.90753C123.702 4.77308 123.686 4.63606 123.612 3.58034V3.58017Z" fill="#85B6C6" />
          <path fillRule="evenodd" clipRule="evenodd" d="M128.677 12.9668L128.722 11.9555L127.689 11.9185L127.627 13.0867L128.677 12.9668Z" fill="#718944" />
          <path fillRule="evenodd" clipRule="evenodd" d="M100.04 13.738L99.2701 12.769C98.9684 12.4745 99.2409 12.7101 98.8745 12.47C99.133 13.1644 99.3839 13.4395 100.04 13.738Z" fill="white" />
          <path d="M8.87461 11.0365C8.68542 10.7608 8.41884 10.5368 8.07486 10.3645C7.73088 10.1749 7.36111 10.0802 6.96554 10.0802C5.9852 10.0802 5.21985 10.3731 4.66949 10.959C4.13632 11.5448 3.86974 12.3116 3.86974 13.2593C3.86974 14.207 4.13632 14.9738 4.66949 15.5597C5.21985 16.1455 5.9852 16.4384 6.96554 16.4384C7.39551 16.4384 7.76528 16.3437 8.07486 16.1541C8.38444 15.9646 8.65102 15.7406 8.87461 15.4821L11.4286 18.1702C10.8267 18.7905 10.1129 19.2299 9.28738 19.4883C8.47903 19.7296 7.70509 19.8502 6.96554 19.8502C6.0024 19.8502 5.09086 19.6951 4.23092 19.385C3.38817 19.0748 2.64862 18.6354 2.01227 18.0668C1.39311 17.4809 0.90294 16.7831 0.541764 15.9732C0.180588 15.1633 0 14.2587 0 13.2593C0 12.2599 0.180588 11.3553 0.541764 10.5454C0.90294 9.73556 1.39311 9.04631 2.01227 8.47769C2.64862 7.89183 3.38817 7.44382 4.23092 7.13366C5.09086 6.8235 6.0024 6.66842 6.96554 6.66842C7.70509 6.66842 8.47903 6.79766 9.28738 7.05612C10.1129 7.29736 10.8267 7.72814 11.4286 8.34845L8.87461 11.0365Z" fill="white" />
          <path d="M16.7024 0V8.68446H16.754C16.84 8.44323 16.9862 8.20199 17.1925 7.96076C17.3989 7.71952 17.6483 7.50413 17.9407 7.31459C18.2331 7.12505 18.577 6.96997 18.9726 6.84935C19.3682 6.72873 19.7982 6.66842 20.2625 6.66842C21.2429 6.66842 22.034 6.8235 22.636 7.13366C23.2379 7.42659 23.7023 7.84014 24.0291 8.3743C24.3731 8.90846 24.6052 9.5374 24.7256 10.2611C24.846 10.9848 24.9062 11.7688 24.9062 12.6131V19.54H21.0365V13.3885C21.0365 13.0267 21.0193 12.6562 20.9849 12.2771C20.9677 11.8808 20.8903 11.519 20.7527 11.1916C20.6323 10.8642 20.4345 10.5971 20.1593 10.3903C19.9014 10.1836 19.523 10.0802 19.0242 10.0802C18.5254 10.0802 18.1213 10.1749 17.8117 10.3645C17.5021 10.5368 17.2613 10.778 17.0893 11.0882C16.9346 11.3811 16.8314 11.7171 16.7798 12.0962C16.7282 12.4753 16.7024 12.8716 16.7024 13.2852V19.54H12.8326V0H16.7024Z" fill="white" />
          <path d="M39.5137 17.3689C38.8945 18.1615 38.112 18.7733 37.166 19.204C36.2201 19.6348 35.2398 19.8502 34.225 19.8502C33.2619 19.8502 32.3504 19.6951 31.4904 19.385C30.6477 19.0748 29.9081 18.6354 29.2718 18.0668C28.6526 17.4809 28.1624 16.7831 27.8013 15.9732C27.4401 15.1633 27.2595 14.2587 27.2595 13.2593C27.2595 12.2599 27.4401 11.3553 27.8013 10.5454C28.1624 9.73556 28.6526 9.04631 29.2718 8.47769C29.9081 7.89183 30.6477 7.44382 31.4904 7.13366C32.3504 6.8235 33.2619 6.66842 34.225 6.66842C35.1194 6.66842 35.9277 6.8235 36.6501 7.13366C37.3896 7.44382 38.0088 7.89183 38.5076 8.47769C39.0235 9.04631 39.4191 9.73556 39.6943 10.5454C39.9695 11.3553 40.107 12.2599 40.107 13.2593V14.4741H31.1292C31.284 15.215 31.6194 15.8095 32.1354 16.2575C32.6513 16.6883 33.2877 16.9037 34.0445 16.9037C34.6808 16.9037 35.214 16.7658 35.6439 16.4901C36.0911 16.1972 36.4781 15.8267 36.8049 15.3787L39.5137 17.3689ZM36.2373 11.8377C36.2545 11.183 36.0395 10.623 35.5924 10.1577C35.1452 9.69248 34.569 9.45986 33.8639 9.45986C33.4339 9.45986 33.0555 9.52878 32.7287 9.66663C32.402 9.80448 32.1182 9.98541 31.8774 10.2094C31.6538 10.4162 31.4732 10.666 31.3356 10.959C31.2152 11.2347 31.1464 11.5276 31.1292 11.8377H36.2373Z" fill="white" />
          <path d="M42.4603 6.97858H46.1753V8.68446H46.2269C46.3473 8.44323 46.5193 8.20199 46.7428 7.96076C46.9664 7.71952 47.233 7.50413 47.5426 7.31459C47.8522 7.12505 48.2048 6.96997 48.6003 6.84935C48.9959 6.72873 49.4259 6.66842 49.8902 6.66842C50.7674 6.66842 51.5413 6.84935 52.2121 7.2112C52.9 7.57306 53.416 8.14168 53.76 8.91708C54.2071 8.10722 54.7489 7.52998 55.3853 7.18536C56.0216 6.84073 56.8042 6.66842 57.7329 6.66842C58.5757 6.66842 59.2808 6.81489 59.8484 7.10782C60.4331 7.38351 60.8889 7.77121 61.2157 8.27091C61.5597 8.75338 61.8004 9.33062 61.938 10.0026C62.0928 10.6574 62.1702 11.3639 62.1702 12.1221V19.54H58.3005V12.2254C58.3005 11.6396 58.1715 11.1399 57.9135 10.7263C57.6727 10.2956 57.2341 10.0802 56.5978 10.0802C56.1506 10.0802 55.7722 10.1577 55.4627 10.3128C55.1703 10.4506 54.9295 10.6488 54.7403 10.9073C54.5683 11.1657 54.4393 11.4673 54.3533 11.8119C54.2845 12.1565 54.2502 12.5184 54.2502 12.8975V19.54H50.3804V12.8975C50.3804 12.6735 50.3718 12.3978 50.3546 12.0704C50.3374 11.743 50.2772 11.4328 50.174 11.1399C50.0708 10.847 49.8988 10.5971 49.6581 10.3903C49.4345 10.1836 49.0991 10.0802 48.6519 10.0802C48.1532 10.0802 47.749 10.1749 47.4394 10.3645C47.1298 10.5368 46.889 10.778 46.717 11.0882C46.5623 11.3811 46.4591 11.7171 46.4075 12.0962C46.3559 12.4753 46.3301 12.8716 46.3301 13.2852V19.54H42.4603V6.97858Z" fill="white" />
          <path d="M64.9595 6.97858H68.8292V19.54H64.9595V6.97858ZM64.6499 3.02405C64.6499 2.40373 64.8649 1.87819 65.2948 1.44741C65.742 0.999403 66.2752 0.775399 66.8943 0.775399C67.5135 0.775399 68.0381 0.999403 68.468 1.44741C68.9152 1.87819 69.1388 2.40373 69.1388 3.02405C69.1388 3.64437 68.9152 4.17853 68.468 4.62654C68.0381 5.05732 67.5135 5.27271 66.8943 5.27271C66.2752 5.27271 65.742 5.05732 65.2948 4.62654C64.8649 4.17853 64.6499 3.64437 64.6499 3.02405Z" fill="white" />
          <path d="M78.7039 10.6746C78.1363 9.96817 77.3882 9.61494 76.4594 9.61494C76.1327 9.61494 75.8145 9.69248 75.5049 9.84756C75.1953 10.0026 75.0405 10.2697 75.0405 10.6488C75.0405 10.959 75.1953 11.1916 75.5049 11.3467C75.8317 11.4845 76.2359 11.6137 76.7174 11.7344C77.2162 11.8377 77.7408 11.9584 78.2911 12.0962C78.8587 12.2168 79.3832 12.415 79.8648 12.6907C80.3636 12.9664 80.7678 13.3455 81.0773 13.8279C81.4041 14.2932 81.5675 14.9221 81.5675 15.7147C81.5675 16.5246 81.3869 17.1966 81.0257 17.7308C80.6818 18.2477 80.2346 18.6699 79.6842 18.9973C79.1339 19.3074 78.5147 19.5228 77.8267 19.6434C77.1388 19.7813 76.4594 19.8502 75.7887 19.8502C74.9115 19.8502 74.0258 19.7296 73.1315 19.4883C72.2371 19.2299 71.4804 18.7819 70.8612 18.1443L73.2089 15.5338C73.57 15.9818 73.9656 16.3264 74.3956 16.5677C74.8427 16.7917 75.3587 16.9037 75.9435 16.9037C76.3906 16.9037 76.7948 16.8434 77.156 16.7228C77.5172 16.5849 77.6978 16.3437 77.6978 15.9991C77.6978 15.6717 77.5344 15.4304 77.2076 15.2753C76.898 15.103 76.4938 14.9652 75.9951 14.8618C75.5135 14.7412 74.9889 14.6206 74.4214 14.4999C73.871 14.3621 73.3464 14.1639 72.8477 13.9055C72.3661 13.647 71.9619 13.2852 71.6352 12.8199C71.3256 12.3374 71.1708 11.6999 71.1708 10.9073C71.1708 10.1663 71.317 9.52878 71.6094 8.99462C71.9189 8.46046 72.3145 8.02106 72.7961 7.67644C73.2949 7.33182 73.8624 7.08197 74.4988 6.92689C75.1351 6.75458 75.7801 6.66842 76.4336 6.66842C77.2592 6.66842 78.0933 6.78904 78.9361 7.03028C79.7788 7.27151 80.4926 7.70229 81.0773 8.32261L78.7039 10.6746Z" fill="white" />
          <path d="M92.0904 10.0802H88.685V14.2673C88.685 14.6119 88.7022 14.9307 88.7366 15.2237C88.771 15.4993 88.8484 15.7406 88.9688 15.9474C89.0892 16.1541 89.2698 16.3178 89.5106 16.4384C89.7685 16.5418 90.1039 16.5935 90.5167 16.5935C90.7231 16.5935 90.9897 16.5763 91.3164 16.5418C91.6604 16.4901 91.9184 16.3867 92.0904 16.2317V19.4625C91.6604 19.6176 91.2132 19.721 90.7489 19.7727C90.2845 19.8243 89.8287 19.8502 89.3816 19.8502C88.728 19.8502 88.126 19.7813 87.5757 19.6434C87.0253 19.5056 86.5438 19.2902 86.131 18.9973C85.7182 18.6871 85.3914 18.2908 85.1506 17.8083C84.9271 17.3258 84.8153 16.74 84.8153 16.0507V10.0802H82.3386V6.97858H84.8153V3.25667H88.685V6.97858H92.0904V10.0802Z" fill="white" />
          <path d="M101.151 10.6746C100.584 9.96817 99.8357 9.61494 98.907 9.61494C98.5802 9.61494 98.262 9.69248 97.9524 9.84756C97.6429 10.0026 97.4881 10.2697 97.4881 10.6488C97.4881 10.959 97.6429 11.1916 97.9524 11.3467C98.2792 11.4845 98.6834 11.6137 99.1649 11.7344C99.6637 11.8377 100.188 11.9584 100.739 12.0962C101.306 12.2168 101.831 12.415 102.312 12.6907C102.811 12.9664 103.215 13.3455 103.525 13.8279C103.852 14.2932 104.015 14.9221 104.015 15.7147C104.015 16.5246 103.834 17.1966 103.473 17.7308C103.129 18.2477 102.682 18.6699 102.132 18.9973C101.581 19.3074 100.962 19.5228 100.274 19.6434C99.5863 19.7813 98.907 19.8502 98.2362 19.8502C97.3591 19.8502 96.4733 19.7296 95.579 19.4883C94.6846 19.2299 93.9279 18.7819 93.3087 18.1443L95.6564 15.5338C96.0176 15.9818 96.4131 16.3264 96.8431 16.5677C97.2903 16.7917 97.8062 16.9037 98.391 16.9037C98.8382 16.9037 99.2423 16.8434 99.6035 16.7228C99.9647 16.5849 100.145 16.3437 100.145 15.9991C100.145 15.6717 99.9819 15.4304 99.6551 15.2753C99.3455 15.103 98.9414 14.9652 98.4426 14.8618C97.961 14.7412 97.4365 14.6206 96.8689 14.4999C96.3185 14.3621 95.794 14.1639 95.2952 13.9055C94.8136 13.647 94.4095 13.2852 94.0827 12.8199C93.7731 12.3374 93.6183 11.6999 93.6183 10.9073C93.6183 10.1663 93.7645 9.52878 94.0569 8.99462C94.3665 8.46046 94.762 8.02106 95.2436 7.67644C95.7424 7.33182 96.3099 7.08197 96.9463 6.92689C97.5827 6.75458 98.2276 6.66842 98.8812 6.66842C99.7067 6.66842 100.541 6.78904 101.384 7.03028C102.226 7.27151 102.94 7.70229 103.525 8.32261L101.151 10.6746Z" fill="white" />
        </svg>